<?xml version="1.0" encoding="UTF-8" standalone="no"?>
<!-- Created with Inkscape (http://www.inkscape.org/) -->

<svg
   xmlns:dc="http://purl.org/dc/elements/1.1/"
   xmlns:cc="http://creativecommons.org/ns#"
   xmlns:rdf="http://www.w3.org/1999/02/22-rdf-syntax-ns#"
   xmlns:svg="http://www.w3.org/2000/svg"
   xmlns="http://www.w3.org/2000/svg"
   xmlns:sodipodi="http://sodipodi.sourceforge.net/DTD/sodipodi-0.dtd"
   xmlns:inkscape="http://www.inkscape.org/namespaces/inkscape"
   width="744.09448819"
   height="1052.3622047"
   id="svg2"
   version="1.1"
   inkscape:version="0.48.2 r9819"
   sodipodi:docname="New document 1">
  <defs
     id="defs4" />
  <sodipodi:namedview
     id="base"
     pagecolor="#ffffff"
     bordercolor="#666666"
     borderopacity="1.0"
     inkscape:pageopacity="0.0"
     inkscape:pageshadow="2"
     inkscape:zoom="0.35"
     inkscape:cx="152.85363"
     inkscape:cy="674.262"
     inkscape:document-units="px"
     inkscape:current-layer="layer1"
     showgrid="false"
     inkscape:window-width="1366"
     inkscape:window-height="706"
     inkscape:window-x="-8"
     inkscape:window-y="-8"
     inkscape:window-maximized="1" />
  <metadata
     id="metadata7">
    <rdf:RDF>
      <cc:Work
         rdf:about="">
        <dc:format>image/svg+xml</dc:format>
        <dc:type
           rdf:resource="http://purl.org/dc/dcmitype/StillImage" />
        <dc:title></dc:title>
      </cc:Work>
    </rdf:RDF>
  </metadata>
  <g
     inkscape:label="Layer 1"
     inkscape:groupmode="layer"
     id="layer1">
    <path
       style="fill:#2b0000"
       id="path3217"
       d="m 253.8247,859.90442 c 41.24445,1.50715 82.5294,1.51935 123.79606,1.6241 40.13088,0.12057 80.26004,-0.23765 120.38563,-0.85129 0,0 -32.1659,23.3699 -32.1659,23.3699 l 0,0 c -39.34427,-0.62813 -78.69243,-0.9717 -118.04226,-0.85128 -42.75744,0.10777 -85.52947,0.16795 -128.26681,1.62409 0,0 34.29328,-24.91552 34.29328,-24.91552 z"
       inkscape:connector-curvature="0" />
    <path
       style="fill:none;stroke:#000000;stroke-width:1px;stroke-linecap:butt;stroke-linejoin:miter;stroke-opacity:1"
       d="m 360,675.21933 c 0,-49.52381 0,-99.04762 0,-148.57143"
       id="path3482"
       inkscape:connector-curvature="0" />
    <path
       style="fill:none;stroke:#000000;stroke-width:1px;stroke-linecap:butt;stroke-linejoin:miter;stroke-opacity:1"
       d="m 351.42857,578.07647 c -10.46697,-0.33207 -20.96851,0.58111 -31.42857,0 -10.5032,-0.58351 -20.94552,-1.98356 -31.42857,-2.85714 -30.82512,-2.56876 -43.84241,-2.22908 -74.28572,-8.57143 -10.63056,-2.2147 -20.78062,-6.44184 -31.42857,-8.57143 -5.60332,-1.12067 -11.42857,0 -17.14285,0"
       id="path3486"
       inkscape:connector-curvature="0" />
    <path
       style="fill:none;stroke:#000000;stroke-width:1px;stroke-linecap:butt;stroke-linejoin:miter;stroke-opacity:1"
       d="m 368.57143,575.21933 c 16.10245,1.58927 32.47998,-1.78794 48.57143,0 0.0923,0.0103 51.13444,11.37342 51.42857,11.42857 6.619,1.24106 13.46672,1.22382 20,2.85714 4.9756,1.2439 9.37328,4.24056 14.28571,5.71429 28.34178,8.50253 -0.5168,-2.46709 31.42857,2.85714 5.94144,0.99024 11.35123,4.05953 17.14286,5.71428 0.91574,0.26164 1.95364,-0.30117 2.85714,0 6.56613,2.18871 5.71429,1.21697 5.71429,5.71429 0,0.95238 -0.52829,2.06471 0,2.85714 1.49422,2.24133 3.80952,3.80953 5.71429,5.71429 1.90476,1.90476 3.80952,3.80952 5.71428,5.71428 0.95238,0.95238 1.55049,2.53048 2.85714,2.85715 2.77184,0.69296 5.71429,0 8.57143,0 4.76191,0 9.52381,0 14.28572,0 4.7619,0 9.52381,0 14.28571,0 1.90476,0 3.90727,0.60234 5.71429,0 14.09132,-4.69711 17.81981,-13.30016 28.57143,-22.85715 4.55786,-4.05143 9.32339,-7.88405 14.28571,-11.42857 1.73292,-1.2378 3.64828,-2.34064 5.71429,-2.85714 1.84789,-0.46197 3.82117,-0.21035 5.71428,0 6.69316,0.74368 13.61124,0.72755 20,2.85714 2.55551,0.85184 3.5593,4.09804 5.71429,5.71429 4.9453,3.70898 5.7963,2.85714 11.42857,2.85714"
       id="path3488"
       inkscape:connector-curvature="0" />
    <path
       style="fill:none;stroke:#000000;stroke-width:1px;stroke-linecap:butt;stroke-linejoin:miter;stroke-opacity:1"
       d="m 168.57143,418.07647 c 0,31.42857 0,62.85714 0,94.28571 0,6.66667 0,13.33334 0,20 0,4.76191 -0.47383,9.54744 0,14.28572 0.48321,4.83211 2.37393,9.4536 2.85714,14.28571 0.47383,4.73827 -0.59064,9.56058 0,14.28572 0.37356,2.98843 1.90476,5.71428 2.85714,8.57142 0.95239,4.76191 2.37394,9.45361 2.85715,14.28572 0.47382,4.73827 -0.59064,9.56058 0,14.28571 0.74711,5.97688 4.2534,11.29932 5.71428,17.14286 1.17781,4.71121 1.80369,9.54515 2.85715,14.28571 0.85183,3.83326 2.0053,7.59532 2.85714,11.42858 1.05346,4.74056 1.67934,9.57449 2.85714,14.28571 0.73044,2.92177 2.1267,5.64966 2.85714,8.57143 0.23099,0.92394 -0.30117,1.95363 0,2.85714 0.67344,2.02031 1.90477,3.80952 2.85715,5.71429 2.53968,5.07936 4.53742,8.40141 5.71428,14.28571 0.63574,3.17869 0,10.5636 0,14.28572 0,0.95238 -0.67343,2.1837 0,2.85714 0.67344,0.67343 2.18371,-0.67344 2.85715,0 0.67343,0.67343 0,1.90476 0,2.85714 0,1.90476 0,3.80952 0,5.71429 0,0.95238 0.95238,2.85714 0,2.85714 -0.95239,0 0,-1.90476 0,-2.85714 0,-4.76191 0.78285,-9.5886 0,-14.28572 -1.13985,-6.8391 -3.9278,-13.30067 -5.71429,-20 -2.02356,-7.58836 -3.61234,-15.29012 -5.71429,-22.85714 -2.66122,-9.5804 -6.26839,-18.89867 -8.57142,-28.57143 -2.46629,-10.35838 -3.62606,-20.9874 -5.71429,-31.42857 -5.34849,-26.74244 -12.34869,-53.15265 -17.14286,-80 -1.35207,-7.5716 -10.78294,-76.61602 -11.42857,-82.85714 -1.37548,-13.29635 -1.38097,-26.71446 -2.85714,-40 -2.76667,-24.9 -8.04355,-49.46222 -11.42857,-74.28572 -2.33048,-17.09019 -3.69897,-34.29836 -5.71429,-51.42857 -0.89715,-7.62575 -2.43122,-15.19062 -2.85714,-22.85714 -0.52829,-9.50915 0.55926,-19.06406 0,-28.57143 -0.71415,-12.14051 -3.577,-22.53066 -5.71429,-34.28571 -3.56341,-19.59879 -2.50385,-16.27502 -5.71428,-37.14286 -6.28967,-40.88281 0.50188,-0.84962 -5.71429,-25.71429 -0.29326,-1.17304 0.34634,-5.36795 0,-5.71428 -0.67343,-0.67344 -1.90476,0 -2.85714,0 -1.90476,0 -3.80953,0 -5.71429,0 -6.666664,0 -13.424038,-1.096 -19.999997,0 -25.755255,4.29254 -50.41808,16.33771 -74.2857144,25.71428 -12.3465412,4.85043 -24.6224516,9.90358 -37.1428576,14.28572 -6.544183,2.29046 -13.422363,3.52174 -20,5.71428 -2.020305,0.67344 -3.942361,1.67586 -5.714285,2.85715 -1.120664,0.7471 -1.510273,2.85714 -2.857143,2.85714 -0.952381,0 -0.792429,-2.32886 0,-2.85714 2.50588,-1.67059 5.741059,-1.82792 8.571428,-2.85715 7.647237,-2.78081 15.273285,-5.62215 22.857143,-8.57143 70.039827,-27.23771 -21.0595,4.61905 71.428572,-17.14285 C 64.185904,142.30163 81.736501,134.65628 100,129.50504 c 18.89658,-5.3298 38.18907,-9.16307 57.14286,-14.28571 16.2917,-4.40317 32.40693,-9.43637 48.57143,-14.28572 12.40747,-3.722241 24.54676,-8.405508 37.14285,-11.42857 20.33237,-4.879769 54.4804,-7.619857 74.28572,-11.428572 11.56833,-2.224679 22.79835,-5.960665 34.28571,-8.571428 9.4709,-2.152477 19.149,-3.358679 28.57143,-5.714286 12.83917,-3.209793 52.17909,-16.117071 62.85714,-20 13.53262,-4.920952 38.45408,-14.872839 51.42857,-22.857143 5.1936,-3.196058 9.65561,-7.459906 14.28572,-11.4285712 2.04524,-1.7530629 3.47296,-4.2200676 5.71428,-5.7142858 0.79243,-0.5282859 2.96232,0.946556 2.85715,0 -2.24065,-20.165787 -19.47364,-69.366111 -22.85715,-80 -7.61904,-23.809524 -15.23809,-47.619044 -22.85714,-71.428574 -6.66667,-19.04762 -13.76246,-37.95043 -20,-57.14285 -6.14658,-18.91255 -10.69325,-38.3315 -17.14286,-57.14286 -14.84173,-43.2884 -3.809,-36.19022 -22.85714,-45.71429 -1.90476,-0.95238 -3.94236,-1.67586 -5.71428,-2.85714 -1.12067,-0.74711 -1.65247,-2.2548 -2.85715,-2.85714 -3.66154,-1.83077 -9.57596,7.41355 -11.42857,8.57143 -11.12477,6.95298 -44.36846,19.9808 -51.42857,22.85714 -39.96313,16.28127 -80.21836,31.85161 -120,48.57143 -25.94152,10.90295 -51.25008,23.26751 -77.14286,34.28571 -18.87689,8.03272 -38.2572,14.84505 -57.142854,22.85714 -12.553072,5.32555 -24.707877,11.54712 -37.142857,17.14286 -6.614274,2.97642 -13.067623,6.43839 -20,8.57143 -5.536931,1.70367 -11.498105,1.55451 -17.142858,2.85714 -6.7558805,1.55905 -13.2735767,4.03268 -19.9999996,5.71429 -8.5183544,2.12959 -17.4928304,2.63124 -25.7142854,5.71428 -7.189455,2.69605 -13.028379,8.2109 -20,11.42858 -5.46899,2.52414 -11.673868,3.19013 -17.142857,5.71428 -6.971622,3.21767 -13.367612,7.55968 -20,11.42857 -10.008309,5.83818 -17.012329,9.68404 -25.714289,17.14286 -20.36087,20.360877 2.74618,-1.625512 -17.14285,14.285714 -4.20692,3.365532 -6.80885,8.656736 -11.42858,11.428571 -24.28151,8.093838 5.32398,-3.194382 -14.28571,8.571429 -0.51809,0.310852 -13.00083,3.786963 -14.28571,5.714286 -1.05658,1.584857 0,3.809524 0,5.714285 0,3.809524 0,7.619048 0,11.428572 0,3.809524 0,7.619048 0,11.428571 0,4.761905 -0.67344,9.571669 0,14.2857146 2.13528,14.946996 9.68669,40.4886604 14.28571,54.2857144 3.5251,10.575289 8.44506,20.687916 11.42857,31.428571 1.80241,6.488667 1.83314,13.343959 2.85714,20 4.19901,27.293552 0.98013,7.267712 5.71429,28.571432 1.05346,4.74057 1.32147,9.67871 2.85714,14.28571 1.34687,4.04061 3.80953,7.61905 5.71429,11.42857 12.259,24.51801 -0.68671,-0.19213 11.42857,20 0.29688,0.4948 5.61178,11.32606 5.71429,11.42857 0.67343,0.67344 2.1837,-0.67343 2.85714,0 0.67343,0.67344 -0.42592,2.00531 0,2.85715 5.94537,11.89074 -0.19725,-3.05439 5.71428,2.85714 1.50585,1.50585 0.87987,4.92338 2.85715,5.71429 3.537051,1.41482 7.619045,0 11.428569,0 6.666666,0 13.333333,0 20,0 6.666666,0 13.333333,0 20,0 1.904761,0 3.809523,0 5.714285,0 0.952381,0 2.005308,0.42591 2.857143,0 1.204677,-0.60234 1.57939,-2.43123 2.857143,-2.85715 6.789695,-2.26323 5.189223,3.38221 11.428571,-2.85714 0.673435,-0.67344 -0.851835,-2.43123 0,-2.85714 1.703671,-0.85184 3.90727,0.60234 5.714286,0 1.277753,-0.42592 1.904762,-1.90477 2.857143,-2.85715 2.857143,-2.85714 5.714286,-5.71428 8.571429,-8.57142 0.952381,-0.95239 1.7796464,-2.04903 2.8571424,-2.85715 28.3327796,-21.24958 -5.6564764,4.72337 14.2857143,-8.57143 2.2413273,-1.49421 3.4729585,-4.22006 5.7142853,-5.71428 1.771925,-1.18128 3.942361,-1.67586 5.714286,-2.85714 1.120664,-0.74711 1.652466,-2.25481 2.857143,-2.85715 1.703671,-0.85183 4.010615,0.85184 5.714286,0 1.204677,-0.60234 2.857143,-1.51027 2.857143,-2.85714 0,-0.95238 -1.904762,0 -2.857143,0 -2.857143,0 -5.714286,0 -8.571429,0 -2.857143,0 -5.75316,-0.46971 -8.5714284,0 C 5.6007129,150.00016 2.895815,151.53481 0,152.36218 c -3.7756808,1.07877 -7.6528907,1.77838 -11.428571,2.85715 -2.895815,0.82737 -5.590005,2.43122 -8.571429,2.85714 -3.771236,0.53875 -7.693026,-0.74711 -11.428571,0 -1.320715,0.26414 -1.73648,2.11003 -2.857143,2.85714 -5.563468,3.70898 -5.243403,2.85714 -11.428572,2.85714 -0.952381,0 -1.904762,0 -2.857143,0 -0.952381,0 -2.005307,-0.42591 -2.857142,0 -1.204678,0.60234 -1.904762,1.90477 -2.857143,2.85715 -1.904762,1.90476 -3.472959,4.22006 -5.714286,5.71428 -0.792429,0.52829 -3.809524,0 -2.857143,0 8.571429,0 17.142857,0 25.714286,0 0.952381,0 1.904762,0 2.857143,0 0.952381,0 2.183708,-0.67343 2.857143,0 0.673435,0.67344 0,1.90476 0,2.85715 0,4.90562 0.673435,4.00877 -5.714286,8.57142 -4.518896,3.22779 -9.576536,5.6282 -14.285714,8.57143 -2.911906,1.81994 -5.313785,4.62841 -8.571429,5.71429 -3.614032,1.20468 -7.619048,0 -11.428571,0"
       id="path3518"
       inkscape:connector-curvature="0" />
    <path
       style="fill:none;stroke:#000000;stroke-width:1px;stroke-linecap:butt;stroke-linejoin:miter;stroke-opacity:1"
       d="m -117.14286,-44.780675 c -5.47461,6.189845 -13.81015,-2.475937 -20,0 -9.43643,3.774572 -10.35846,7.979272 -14.28571,17.142858 -2.52121,5.882817 -5.53172,14.468279 0,19.9999996 3.94894,3.9489416 11.56577,7.64191506 17.14286,8.57142859 2.81826,0.46971141 5.71428,0 8.57142,0 8.50052,0 16.59483,2.11360651 22.85715,-5.71428569 1.88139,-2.3517372 1.30764,-5.9889235 2.85714,-8.5714285 1.385918,-2.309863 4.328368,-3.404423 5.714286,-5.714286 1.549503,-2.582505 2.1267,-5.649657 2.857143,-8.571428 0.230986,-0.923946 0,-3.809524 0,-2.857143 0,13.159112 0.305422,16.815766 11.428571,25.7142855 4.103826,3.2830605 4.685869,2.8571428 8.571429,2.8571428 1.904761,0 4.367415,1.34687009 5.714285,0 4.594103,-4.5941027 2.857143,-14.3556873 2.857143,-20.0000003 0,-0.952381 0,-1.904762 0,-2.857143 0,-0.95238 0.673435,-2.183707 0,-2.857142 -0.673435,-0.673435 -1.904762,0 -2.857143,0 -3.809524,0 -7.619047,0 -11.428571,0 -0.952381,0 -2.857143,0.952381 -2.857143,0 0,-0.952381 1.904762,0 2.857143,0 2.857143,0 5.714286,0 8.571428,0 1.904762,0 3.90727,0.602338 5.714286,0 1.277753,-0.425918 1.904762,-1.904762 2.857143,-2.857143 3.809524,-3.809524 7.619048,-7.619048 11.428571,-11.428572 2.857143,-2.857143 5.984693,-5.467346 8.571429,-8.571428 2.198303,-2.637963 3.653971,-5.824342 5.714286,-8.571429 0.808122,-1.077496 2.254804,-4.06182 2.857143,-2.857143 1.277753,2.555507 0,5.714286 0,8.571429 0,6.666667 0,13.333333 0,20 0,1.904762 0,3.809524 0,5.714286 0,0.952381 -0.952381,2.857142 0,2.857142 1.34687,0 2.530478,-1.550486 2.857142,-2.857142 9.908954,-39.635814 -1.653049,-2.714366 2.857143,-34.285715 0.30117,-2.108185 2.340642,-3.648281 2.857143,-5.714285 0.461973,-1.847891 -0.851835,-4.010615 0,-5.714286 0.425918,-0.851836 2.183708,-0.673435 2.857143,0 1.505847,1.505846 1.761479,3.888179 2.857143,5.714286 1.766705,2.944509 4.178617,5.500092 5.714286,8.571428 1.34687,2.69374 2.1266996,5.649657 2.8571424,8.571429 0.2309863,0.923945 0,3.809524 0,2.857143 0,-1.904762 -0.5232783,-3.882812 0,-5.714286 7.80346731,-27.312136 1.5158868,-5.130973 11.4285715,-20 0.5282859,-0.792429 -0.6734351,-2.183708 0,-2.857143 0.673435,-0.673435 1.9047619,0 2.8571428,0 0.952381,0 2.2857143,-0.761905 2.8571429,0 18.9498734,25.266497 -1.2923913,4.421894 8.5714284,14.285714 0.952381,0.952381 1.652466,2.254805 2.857143,2.857143 0.851835,0.425918 1.904762,0 2.857143,0 1.904762,0 3.809524,0 5.714286,0 16.248562,0 1.881026,1.277753 14.285714,-2.857143 0.903508,-0.301169 2.064714,0.528286 2.857143,0 C 52.599007,-66.513346 58.073766,-79.93288 60,-87.637817 c 0.230986,-0.923946 -0.425918,-2.005308 0,-2.857143 4.204013,-8.408026 2.857143,4.435099 2.857143,-8.571429 0,-0.952381 -0.528286,2.064714 0,2.857143 1.494218,2.241327 3.809524,3.809524 5.714286,5.714286 1.904761,1.904762 3.472958,4.220067 5.714285,5.714285 0.792429,0.528286 2.005308,-0.425917 2.857143,0 7.061156,3.530578 -0.986223,2.857143 5.714286,2.857143 0.952381,0 2.857143,-0.952381 2.857143,0 0,0.952381 -2.005308,0.425918 -2.857143,0 C 81.652466,-82.52587 81.204677,-84.178336 80,-84.780675 c -1.703671,-0.851835 -4.367416,1.346871 -5.714286,0 -0.673435,-0.673435 0.673435,-2.183707 0,-2.857142 -0.673435,-0.673435 -2.183708,0.673435 -2.857143,0 -0.673435,-0.673435 0.425918,-2.005308 0,-2.857143 -6.53801,-13.07602 1.184207,12.124047 -5.714285,-8.571429 -0.370594,-1.111781 0.443391,-8.128041 0,-8.571431 -0.673435,-0.67343 -1.904762,0 -2.857143,0"
       id="path3520"
       inkscape:connector-curvature="0" />
    <path
       style="fill:none;stroke:#000000;stroke-width:1px;stroke-linecap:butt;stroke-linejoin:miter;stroke-opacity:1"
       d="m 51.428571,-136.20925 11.428572,0"
       id="path3522"
       inkscape:connector-curvature="0" />
    <path
       style="fill:none;stroke:#000000;stroke-width:1px;stroke-linecap:butt;stroke-linejoin:miter;stroke-opacity:1"
       d="m 88.571429,-124.78067 c 2.857142,3.80952 5.472422,7.81306 8.571428,11.42857 2.629594,3.06786 6.330103,5.20943 8.571433,8.57143 6.89334,3.44917 0.68538,9.942184 2.85714,14.28571 0.42592,0.851835 2.18371,-0.673435 2.85714,0 0.67344,0.673435 0,3.809524 0,2.857143 0,-11.428572 0,-22.857143 0,-34.285713 0,-2.85714 0,-5.71429 0,-8.57143 0,-0.95238 -0.85183,-2.43123 0,-2.85714 1.70367,-0.85184 3.80953,0 5.71429,0 4.20401,0 2.1837,-0.67344 5.71428,2.85714 5.72085,5.72085 0.7897,-0.0621 5.71429,11.42857 0.54429,1.27001 8.03961,18.30552 11.42857,20.000001 0.86953,0.434763 7.28469,0 8.57143,0"
       id="path3524"
       inkscape:connector-curvature="0" />
    <path
       style="fill:none;stroke:#000000;stroke-width:1px;stroke-linecap:butt;stroke-linejoin:miter;stroke-opacity:1"
       d="m 177.14286,-161.92353 c -9.91887,13.68626 -8.57143,12.65237 -8.57143,25.71428 0,0.95238 -0.85184,2.43123 0,2.85715 0.82417,0.41208 15.31679,0 17.14286,0 2.85714,0 5.71428,0 8.57142,0 0.95239,0 2.18371,0.67343 2.85715,0 0.67343,-0.67344 0,-1.90477 0,-2.85715 0,-1.90476 0,-3.80952 0,-5.71428 0,-7.33204 0.69296,-12.8998 -2.85715,-20 -1.20467,-2.40936 -4.09804,-3.5593 -5.71428,-5.71429 -0.95238,-1.90476 -1.90476,-3.80952 -2.85714,-5.71428 -0.95239,0 -2.18371,0.67343 -2.85715,0 -0.67343,-0.67344 -0.95238,-2.85715 0,-2.85715 0.95238,0 -0.30117,1.95364 0,2.85715 1.62185,4.86554 3.28276,9.77001 5.71429,14.28571 9.61306,17.85282 23.15139,34.72709 34.28571,51.42857 49.389,74.0835 -2.57672,-4.00907 31.42857,54.285717 9.0901,15.58302 7.88041,5.807337 11.42858,20 0.23098,0.923945 0.67343,2.183708 0,2.857143 -2.92957,2.929564 -15.25925,5.445198 -17.14286,5.714285 -2.82843,0.404061 -5.71429,0 -8.57143,0 -10.47619,0 -20.95238,0 -31.42857,0 -1.90476,0 -3.80953,0 -5.71429,0 -0.95238,0 -2.1837,0.673436 -2.85714,0 -0.67344,-0.673435 0,-1.904761 0,-2.857142 0,-10.476191 0,-20.952381 0,-31.428572 0,-1.904762 0,-3.809524 0,-5.714286 0,-0.95238 -0.67344,-2.183707 0,-2.857142 0.67344,-0.673435 1.90476,0 2.85714,0"
       id="path3526"
       inkscape:connector-curvature="0" />
    <path
       style="fill:none;stroke:#000000;stroke-width:1px;stroke-linecap:butt;stroke-linejoin:miter;stroke-opacity:1"
       d="m -82.857143,58.076468 c -4.761905,1.904762 -9.69844,3.420649 -14.285714,5.714286 -1.204677,0.602339 -2.164184,1.702211 -2.857143,2.857143 -7.29559,12.159311 -6.38709,13.28105 -8.57143,28.571428 -0.26937,1.885619 0,3.809524 0,5.714285 0,0.95238 -0.95238,2.85714 0,2.85714 12.142939,0 23.645265,-7.336086 34.285716,-11.428567 5.621901,-2.16227 11.638617,-3.267957 17.142857,-5.714286 3.137899,-1.394622 5.383171,-4.438983 8.571428,-5.714286 3.537054,-1.414821 7.81454,1.204677 11.428572,0 1.277753,-0.425918 1.652466,-2.254804 2.857143,-2.857143 0.851835,-0.425917 1.904762,0 2.857143,0 2.857142,0 5.714285,0 8.571428,0 1.904762,0 4.010615,-0.851835 5.714286,0 0.851835,0.425918 0,1.904762 0,2.857143 0,2.857143 0,5.714286 0,8.571429 0,3.809524 0.626282,7.67088 0,11.42857 -0.350102,2.10061 -2.183708,3.69398 -2.857143,5.71429 -3.809524,11.42857 4.761905,-4.76191 -2.857143,2.85714 -0.673435,0.67343 0,1.90476 0,2.85714 -1.904762,0.95238 -3.69398,2.18371 -5.714286,2.85715 -1.965235,0.65507 -6.885656,-0.84289 -8.571428,0 -1.204677,0.60233 -1.736479,2.11003 -2.857143,2.85714 -1.438837,6.29475 -5.877688,1.51027 -8.571429,2.85714 -6.520316,3.26016 -7.871038,6.4332 -14.285714,8.57143 -1.807016,0.60234 -4.367416,-1.34687 -5.714286,0 -0.673435,0.67343 0.673435,2.18371 0,2.85714 -0.114975,0.11498 -10.379324,0 -11.428571,0"
       id="path3528"
       inkscape:connector-curvature="0" />
    <path
       style="fill:none;stroke:#000000;stroke-width:1px;stroke-linecap:butt;stroke-linejoin:miter;stroke-opacity:1"
       d="m 25.714286,49.50504 c -13.213415,16.516768 -11.428572,8.1875 -11.428572,22.857143 0,3.809523 -0.923945,7.73279 0,11.428571 3.461939,13.847754 5.224432,9.591788 14.285715,17.142856 7.53662,6.28052 6.296439,8.76548 14.285714,11.42857 0.903508,0.30117 1.933197,0.23099 2.857143,0 C 56.754754,109.60207 53.514275,110.6622 60,100.93361 63.809524,95.219325 67.89516,89.679773 71.428571,83.790754 73.6199,80.13854 75.238095,76.171706 77.142857,72.362183 78.095238,70.457421 79.326565,68.668202 80,66.647897 c 0.301169,-0.903508 0,-1.904762 0,-2.857143 0,-2.857143 1.125484,-5.9453 0,-8.571429 -1.002069,-2.33816 -13.684211,-18.517723 -17.142857,-20 -3.501505,-1.500644 -7.648465,0.472514 -11.428572,0 C 47.532127,34.73227 43.896444,32.849238 40,32.362183 c -6.615186,-0.826899 -13.333333,0 -20,0 -2.857143,0 -6.015922,-1.277754 -8.571429,0 -1.9047615,0.952381 -1.9047615,3.809523 -2.8571424,5.714285 -0.952381,1.904762 -2.1837079,3.693981 -2.8571429,5.714286 -0.3011693,0.903508 0,1.904762 0,2.857143"
       id="path3532"
       inkscape:connector-curvature="0" />
    <path
       style="fill:none;stroke:#000000;stroke-width:1px;stroke-linecap:butt;stroke-linejoin:miter;stroke-opacity:1"
       d="m 114.28571,18.076468 c 0,28.47571 -2.69374,3.183949 2.85715,14.285715 1.34687,2.69374 0.72755,6.44184 2.85714,8.571428 2.12959,2.129589 5.71429,1.904762 8.57143,2.857143 2.85714,0.952381 5.60071,2.362024 8.57143,2.857143 2.81827,0.469711 5.71428,0 8.57143,0 2.85714,0 5.79959,0.692959 8.57142,0 1.30666,-0.326664 2.16419,-1.702211 2.85715,-2.857143 2.19133,-3.652214 4.68128,-7.296563 5.71428,-11.428571 0.92395,-3.695781 0,-7.619048 0,-11.428572 0,-7.163282 2.02031,-10.418419 -5.71428,-14.2857141 -7.10021,-3.5501018 -12.66796,-2.8571429 -20,-2.8571429 -2.85715,0 -6.14858,-1.5142826 -8.57143,0 -5.71072,3.5691986 -9.52381,9.52381 -14.28572,14.285714 z"
       id="path3534"
       inkscape:connector-curvature="0" />
    <path
       style="fill:none;stroke:#000000;stroke-width:1px;stroke-linecap:butt;stroke-linejoin:miter;stroke-opacity:1"
       d="m 180,-10.49496 c 0,3.8095236 -0.42069,7.6423474 0,11.42857119 0.95238,4.76190481 1.90476,9.52380981 2.85714,14.28571381 0.95238,0.952381 2.43123,1.57939 2.85715,2.857143 0.60233,1.807016 0,3.809524 0,5.714286 0,0.952381 -0.95239,-2.857143 0,-2.857143 0.95238,0 0,1.904762 0,2.857143 0,6.666667 0,13.333333 0,20 0,0.952381 0,-1.904762 0,-2.857143 0,-3.809524 0,-7.619047 0,-11.428571 0,-5.714286 0,-11.428572 0,-17.142857 0,-1.904762 0,-3.8095242 0,-5.7142861 0,-0.9523809 -0.79243,-2.328857 0,-2.8571429 2.50588,-1.6705867 5.77514,-1.7386281 8.57142,-2.85714281 3.95455,-1.58181867 7.29657,-4.68128349 11.42858,-5.71428569 1.84789,-0.4619726 3.80952,0 5.71428,0 1.90476,0 3.90727,-0.6023386 5.71429,0 2.37628,0.7920938 5.39606,7.2985473 5.71428,8.5714285 0.46198,1.8478905 -0.46197,3.8663953 0,5.7142858 0.5165,2.0660042 2.18371,3.6939802 2.85715,5.7142852 0.30117,0.903508 0,1.904762 0,2.857143 0,1.034516 -0.50046,15.141029 0,17.142857 0.5165,2.066005 2.1837,3.693981 2.85714,5.714286 0.30117,0.903508 -0.85184,2.431225 0,2.857143 1.70367,0.851835 3.80952,0 5.71428,0 1.90477,0 3.80953,0 5.71429,0 6.85475,0 14.11888,1.553693 20,-2.857143 1.04689,-0.785167 13.67603,-13.06634 14.28571,-14.285714 0.42592,-0.851836 -0.67343,-2.183708 0,-2.857143 0.67344,-0.673435 1.90477,0 2.85715,0"
       id="path3536"
       inkscape:connector-curvature="0" />
    <path
       style="fill:none;stroke:#000000;stroke-width:1px;stroke-linecap:butt;stroke-linejoin:miter;stroke-opacity:1"
       d="m 380,315.21933 c -11.42857,0 -22.85714,0 -34.28571,0 -5.33971,0 -12.44205,-0.90351 -17.14286,2.85714 -2.68139,2.14511 -2.9672,6.51111 -5.71429,8.57143 -1.52381,1.14285 -4.12943,-1.05657 -5.71428,0 -4.87376,3.24917 -1.86586,10.32056 -2.85715,14.28571 -4.50604,18.02419 -6.51204,9.23925 -8.57142,25.71429 -0.8269,6.61518 0,13.33333 0,20 0,2.85714 0,5.71428 0,8.57143 0,4.7619 -0.67344,9.57166 0,14.28571 0.30117,2.10818 2.1837,3.69398 2.85714,5.71429 0.56862,1.70587 -0.56863,4.0084 0,5.71428 0.76853,2.30558 7.1798,15.28736 8.57143,17.14286 1.61624,2.15499 4.22006,3.47296 5.71428,5.71428 0.52829,0.79243 -0.57143,2.09524 0,2.85715 9.46345,12.61793 5.28092,5.42537 14.28572,11.42857 1.12066,0.74711 1.90476,1.90476 2.85714,2.85714 3.67785,3.67785 6.20145,6.82905 11.42857,8.57143 0.16012,0.0534 13.73591,0.2749 14.28572,0 2.40935,-1.20468 3.47295,-4.22007 5.71428,-5.71429 1.77193,-1.18128 4.20844,-1.35129 5.71429,-2.85714 2.4281,-2.4281 3.28618,-6.14332 5.71428,-8.57143 1.50585,-1.50584 4.01062,-1.57939 5.71429,-2.85714 5.64808,-4.23606 5.78049,-7.19251 11.42857,-11.42857 1.70367,-1.27775 3.80952,-1.90476 5.71429,-2.85714 2.85714,-2.85715 5.41624,-6.04728 8.57142,-8.57143 1.66293,-1.33035 4.20844,-1.3513 5.71429,-2.85715 6.1441,-2.50868 4.64466,-10.35894 8.57143,-14.28571 1.50585,-1.50585 4.20844,-1.3513 5.71428,-2.85714 1.50585,-1.50585 1.67586,-3.94236 2.85715,-5.71429 0.74711,-1.12066 2.2548,-1.65246 2.85714,-2.85714 0.42592,-0.85184 -0.42592,-2.00531 0,-2.85714 0.60234,-1.20468 2.11003,-1.73648 2.85714,-2.85715 1.18129,-1.77192 1.90476,-3.80952 2.85715,-5.71428 0.95238,-1.90477 2.1837,-3.69398 2.85714,-5.71429 0.60234,-1.80701 0,-3.80952 0,-5.71428 0,-13.95121 1.20468,-13.34971 -5.71429,-28.57143 -2.29796,-5.05553 -6.08792,-9.31871 -8.57143,-14.28572 -1.34687,-2.69374 -1.05012,-6.16207 -2.85714,-8.57143 -1.27775,-1.70367 -4.20844,-1.35129 -5.71428,-2.85714 -0.67344,-0.67343 0.85183,-2.43122 0,-2.85714 -1.70368,-0.85184 -3.8664,0.46197 -5.71429,0 -2.066,-0.5165 -3.73701,-2.06624 -5.71429,-2.85714 -2.79628,-1.11852 -5.67561,-2.02977 -8.57142,-2.85715 -3.77569,-1.07876 -7.52583,-3.29078 -11.42858,-2.85714 -5.09736,0.56637 -9.15698,5.71429 -14.28571,5.71429 -6.02339,0 -11.29931,-4.2534 -17.14286,-5.71429 -1.84789,-0.46197 -3.80952,0 -5.71428,0 -1.90476,0 -3.80953,0 -5.71429,0 -6.66667,0 -13.33333,0 -20,0 -1.90476,0 -3.86639,-0.46197 -5.71428,0 -13.79699,3.44925 0.1416,1.35777 -8.57143,5.71429 -0.85184,0.42591 -2.18371,-0.67344 -2.85715,0 -0.67343,0.67343 0.95239,2.85714 0,2.85714 -0.95238,0 0,-1.90476 0,-2.85714"
       id="path3554"
       inkscape:connector-curvature="0" />
    <path
       style="fill:none;stroke:#000000;stroke-width:1px;stroke-linecap:butt;stroke-linejoin:miter;stroke-opacity:1"
       d="m 354.28571,718.07647 c -4.37142,21.85712 -0.5166,7.09189 -8.57142,28.57143 -2.11496,5.63987 -4.2534,11.29931 -5.71429,17.14285 -1.1778,4.71122 -1.67934,9.5745 -2.85714,14.28572 -0.73045,2.92177 -1.73863,5.77514 -2.85715,8.57143 -0.79091,1.97727 -2.34064,3.64828 -2.85714,5.71428 -0.54319,2.17276 0,11.89318 0,14.28572 0,8.57143 0,17.14285 0,25.71428 0,3.80953 0,7.61905 0,11.42857 0,1.90477 0.60234,3.90727 0,5.71429 -0.95238,1.90476 -1.90476,3.80952 -2.85714,5.71429 -0.95238,0 -2.18371,-0.67344 -2.85714,0 -0.003,0.003 0.004,8.55847 0,8.57142 -0.42592,1.27776 -2.25481,1.65247 -2.85715,2.85715 -0.42591,0.85183 0.67344,2.1837 0,2.85714 C 319.04762,873.31456 320,864.74313 320,872.36218"
       id="path3556"
       inkscape:connector-curvature="0" />
    <path
       style="fill:none;stroke:#000000;stroke-width:1px;stroke-linecap:butt;stroke-linejoin:miter;stroke-opacity:1"
       d="m 377.14286,709.50504 c 1.90476,7.61905 3.80952,15.23809 5.71428,22.85714 0.95238,6.66667 1.34286,13.43811 2.85715,20 13.38887,58.01848 -0.41636,-18.00425 8.57142,31.42857 1.03631,5.69967 2.1386,11.39449 2.85715,17.14286 0.39682,3.1746 -0.59524,11.90476 0,14.28572 0.32666,1.30665 2.2548,1.65246 2.85714,2.85714 0.42592,0.85183 -0.30117,1.95363 0,2.85714 0.67344,2.02031 2.34064,3.64828 2.85714,5.71429 0.46198,1.84789 -0.85183,4.01061 0,5.71428 0.42592,0.85184 2.18371,-0.67343 2.85715,0 0.68751,0.68752 -0.68752,10.74106 0,11.42857 0.67343,0.67344 2.85714,-0.95238 2.85714,0 0,0.95238 -2.85714,-0.95238 -2.85714,0 0,4.10978 6.8917,8.57143 2.85714,8.57143 -0.95238,0 0,-1.90476 0,-2.85714"
       id="path3558"
       inkscape:connector-curvature="0" />
    <path
       style="fill:none;stroke:#000000;stroke-width:1px;stroke-linecap:butt;stroke-linejoin:miter;stroke-opacity:1"
       d="m 351.42857,340.93361 c 0.95238,3.80952 6.66667,10.47619 2.85714,11.42857 -3.80952,0.95238 -1.90476,-7.61905 -2.85714,-11.42857 z"
       id="path3560"
       inkscape:connector-curvature="0" />
    <path
       style="fill:none;stroke:#000000;stroke-width:1px;stroke-linecap:butt;stroke-linejoin:miter;stroke-opacity:1"
       d="m 400,343.79075 c 15.2381,11.42858 15.2381,11.42858 0,0 z"
       id="path3562"
       inkscape:connector-curvature="0" />
    <path
       style="fill:none;stroke:#000000;stroke-width:1px;stroke-linecap:butt;stroke-linejoin:miter;stroke-opacity:1"
       d="m 314.28571,400.93361 c 26.94958,0 7.89695,2.55551 28.57143,-5.71428 0.88427,-0.35371 1.90476,0 2.85715,0 0.95238,0 3.80952,0 2.85714,0 -3.92677,0 -11.42857,-1.06963 -11.42857,2.85714 0,0.95238 1.95363,0.30117 2.85714,0 2.02031,-0.67344 3.80952,-1.90476 5.71429,-2.85714 5.07936,-2.53969 7.8651,-4.99735 14.28571,-2.85715 0.90351,0.30117 0.95238,2.85715 0,2.85715 -0.95238,0 0.95238,-2.85715 0,-2.85715 -1.34687,0 -2.85714,1.51028 -2.85714,2.85715 0,0.65544 10.61417,-0.81441 11.42857,0 1.34687,1.34687 -1.34687,4.36741 0,5.71428 0.67343,0.67344 2.00531,-0.42592 2.85714,0 1.20468,0.60234 1.65247,2.25481 2.85714,2.85714 0.85184,0.42592 1.90477,0 2.85715,0 2.85714,0 5.71428,0 8.57143,0 6.66666,0 13.33333,0 20,0 0.95238,0 2.85714,-0.95238 2.85714,0 0,0.95238 -1.90476,0 -2.85714,0 -0.95239,0 -1.90477,0 -2.85715,0 -7.61904,0 -15.23809,0 -22.85714,0 -2.85714,0 -5.71429,0 -8.57143,0 -0.95238,0 -3.64957,-0.52828 -2.85714,0 3.98259,2.65507 14.55782,7.483 20,8.57143 1.86777,0.37356 3.80952,0 5.71428,0 0.95239,0 1.90477,0 2.85715,0 0.95238,0 3.53058,0.67344 2.85714,0 -1.50585,-1.50584 -6.66667,-0.95238 -5.71429,-2.85714 0.22806,-0.4561 34.79913,19.06889 -8.57142,-5.71429 C 383.86529,402.73418 380,403.0632 380,400.93361 c 0,-1.90476 4.01061,-0.85183 5.71429,0 0.85183,0.42592 -0.67344,2.18371 0,2.85714 0.67343,0.67344 3.80952,0 2.85714,0 -12.38095,0 -24.76191,0 -37.14286,0 -16.19047,0 -0.95238,1.90477 -5.71428,-2.85714 -0.67344,-0.67343 -3.76066,-0.30117 -2.85715,0 3.72526,1.24175 7.55523,2.21159 11.42857,2.85714 0.10637,0.0177 8.56015,-0.0113 8.57143,0 1.50585,1.50585 1.08522,4.53301 2.85715,5.71429 2.85714,1.90476 5.71428,-0.95238 8.57142,0 20.69548,6.89849 -4.50459,-0.82373 8.57143,5.71429 3.94102,1.97051 2.55564,-3.46016 5.71429,2.85714 0.42592,0.85183 -0.67344,2.18371 0,2.85714 1.34687,1.34687 4.36741,-1.34687 5.71428,0 0.67344,0.67344 -0.67343,2.18371 0,2.85714 0.67344,0.67344 1.90477,0 2.85715,0 2.85714,0 5.71428,0 8.57143,0 0.95238,0 2.43122,-0.85183 2.85714,0 3.16108,6.32217 -5.09698,13.66841 -8.57143,17.14286 -0.95238,0.95238 -1.73648,2.11003 -2.85714,2.85714 -1.77193,1.18129 -3.94236,1.67586 -5.71429,2.85715 -1.98721,1.3248 -4.23159,5.82253 -5.71428,2.85714 -0.85184,-1.70367 0,-3.80952 0,-5.71429 0,-0.95238 -0.95239,-2.85714 0,-2.85714 0.95238,0 0.52828,2.06472 0,2.85714 -10.62997,15.94495 -1.04902,-6.47339 -11.42858,14.28572 -2.29363,4.58727 -3.42064,9.69844 -5.71428,14.28571 -0.60234,1.20468 -2.25481,1.65247 -2.85714,2.85715 -0.42592,0.85183 -0.52829,3.64957 0,2.85714 2.36256,-3.54385 4.5442,-7.33327 5.71428,-11.42857 0.78492,-2.74721 0,-11.42857 0,-8.57143 0,55.8419 0,-37.19481 0,45.71428 0,2.85715 0,5.71429 0,8.57143 0,0.95238 0,3.80953 0,2.85715 0,-14.63455 0.31314,5.67541 -2.85714,-22.85715 -0.31552,-2.83967 0.69296,-5.79959 0,-8.57143 -0.5165,-2.066 -4.76191,-4.7619 -5.71429,-2.85714 -0.85183,1.70367 0,3.80952 0,5.71429 0,2.85714 0.69296,5.79959 0,8.57143 -0.32666,1.30665 -2.2548,1.65246 -2.85714,2.85714 -0.42592,0.85183 0.95238,2.85714 0,2.85714 -1.34687,0 -2.593,-1.53643 -2.85714,-2.85714 -0.74711,-3.73555 0.37906,-7.63796 0,-11.42857 -3.49166,-34.91661 -0.16184,-6.19979 -5.71429,-22.85715 -0.30117,-0.9035 0.67344,-2.1837 0,-2.85714 -0.67343,-0.67343 -2.18371,-0.67343 -2.85714,0 -0.68752,0.68752 0.68752,10.74106 0,11.42857 -0.67344,0.67344 -2.00531,0.42592 -2.85714,0 -1.20468,-0.60234 -2.25481,-1.65246 -2.85715,-2.85714 -0.42591,-0.85184 0,-1.90476 0,-2.85714 0,-0.95238 -0.95238,-2.85715 0,-2.85715 0.95238,0 0,1.90477 0,2.85715 0,3.80952 0,7.61904 0,11.42857 0,0.95238 0.67344,2.18371 0,2.85714 -0.67343,0.67344 -2.1837,0.67344 -2.85714,0 -1.50585,-1.50585 -1.90476,-3.80952 -2.85714,-5.71428 -15.36706,-30.73411 -2.68383,-3.34736 -14.28572,-34.28572 -0.74775,-1.99399 -1.90476,-3.80952 -2.85714,-5.71428 -0.95238,-1.90477 -2.18371,-7.7346 -2.85714,-5.71429 -1.50585,4.51754 0,9.52381 0,14.28571 0,3.80953 0,7.61905 0,11.42858 0,1.90476 0,3.80952 0,5.71428 0,0.95238 0,3.80952 0,2.85714 0,-11.42857 0,-22.85714 0,-34.28571 0,-0.95238 0,-3.80952 0,-2.85714 0,3.80952 0,7.61904 0,11.42857 0,1.90476 1.90476,5.71428 0,5.71428 -1.90476,0 0,-3.80952 0,-5.71428 0,-6.66667 0,-13.33334 0,-20 0,-0.95238 0.15657,1.91772 0,2.85714 -0.79836,4.79014 -2.25481,9.46701 -2.85715,14.28572 -0.35438,2.83508 0,5.71428 0,8.57142 0,1.90477 -0.60233,3.90727 0,5.71429 6.79316,20.37948 -0.4474,-23.8893 8.57143,25.71429 0.68147,3.74807 -0.62628,7.67088 0,11.42857 0.35011,2.10061 2.18371,7.73459 2.85715,5.71428 1.50584,-4.51754 0,-9.52381 0,-14.28571 0,-3.80953 0,-7.61905 0,-11.42857 0,-1.90477 0,-7.61905 0,-5.71429 0,20.26493 -2.02031,1.67368 2.85714,11.42857 0.42592,0.85184 -0.42592,3.70898 0,2.85715 1.34687,-2.69374 1.67078,-5.80325 2.85714,-8.57143 1.67777,-3.9148 3.80953,-7.61905 5.71429,-11.42857 0.95238,-1.90477 1.35129,-4.20844 2.85714,-5.71429 0.67344,-0.67344 0,1.90476 0,2.85714 0,5.71429 0,11.42857 0,17.14286 0,0.95238 -0.95238,2.85714 0,2.85714 4.7619,0 7.61905,-4.7619 8.57143,-8.57143 0.46197,-1.84789 0,-3.80952 0,-5.71428 0,-0.95238 0,1.90476 0,2.85714 0,1.71605 0,8.31746 0,11.42857 0,0.95238 -0.95238,2.85715 0,2.85715 2.18797,0 5.69381,-8.55096 5.71428,-8.57143 0.67344,-0.67344 0,1.90476 0,2.85714 0,3.80952 0,7.61905 0,11.42857 0,2.85714 -0.69295,5.79959 0,8.57143 0.32667,1.30666 2.11004,3.97781 2.85715,2.85714 2.17818,-3.26727 1.77837,-7.65289 2.85714,-11.42857 0.82738,-2.89581 2.1267,-5.64966 2.85714,-8.57143 0.23099,-0.92394 -0.95238,-2.85714 0,-2.85714 0.95238,0 0,1.90476 0,2.85714 0,10.83997 2.12959,12.51991 -2.85714,20 -0.74711,1.12067 -2.2548,1.65247 -2.85714,2.85715 -0.42592,0.85183 -0.13469,3.79995 0,2.85714 1.08588,-7.60117 0.42904,-15.57283 2.85714,-22.85714 2.4281,-7.28432 7.55968,-13.36762 11.42857,-20 2.79814,-4.79682 5.0163,-10.01957 8.57143,-14.28572 1.36333,-1.63599 4.7619,-4.7619 5.71429,-2.85714 1.34687,2.69374 -1.79967,5.75149 -2.85715,8.57143 -1.80081,4.80217 -3.69398,9.57167 -5.71428,14.28571 -0.83889,1.9574 -2.18371,3.69398 -2.85715,5.71429 -0.30117,0.9035 -0.15657,3.79656 0,2.85714 3.5882,-21.52917 -0.56287,-17.49769 11.42858,-34.28571 2.35326,-3.29457 6.575,-7.71072 8.57142,-5.71429 0.67344,0.67343 0.13469,1.91433 0,2.85714 -0.81926,5.73489 -2.2174,11.38518 -2.85714,17.14286 -0.31552,2.83967 0.90351,5.8609 0,8.57143 -0.30117,0.90351 -2.18371,-0.67344 -2.85714,0 -0.67344,0.67343 -0.42592,3.70898 0,2.85714 1.34687,-2.69374 1.90476,-5.71428 2.85714,-8.57143 4.76191,-6.66666 10.36263,-12.80767 14.28572,-20 1.88034,-3.44729 1.10103,-7.91636 2.85714,-11.42857 0.42592,-0.85183 2.85714,-0.95238 2.85714,0 0,5.25599 -7.45564,16.28072 -8.57143,20 -1.66463,5.54879 -1.45211,11.52272 -2.85714,17.14286 -0.5165,2.066 -2.18371,3.69398 -2.85714,5.71428 -0.30117,0.90351 0,3.80953 0,2.85715 0,-2.85715 0,-5.71429 0,-8.57143 0,-0.95238 0,-3.80953 0,-2.85714 0,2.85714 0.40406,5.743 0,8.57142 -0.27407,1.91844 -4.89118,22.85715 -8.57143,22.85715 -0.95238,0 0,-1.90477 0,-2.85715 0,-6.66666 0,-13.33333 0,-20 0,-1.90476 0.85183,-7.41795 0,-5.71428 -1.75611,3.51221 -1.77838,7.65289 -2.85714,11.42857 -0.82738,2.89581 -2.1267,5.64966 -2.85715,8.57143 -0.23098,0.92394 0.67344,2.18371 0,2.85714 -0.67343,0.67344 -2.43122,0.85184 -2.85714,0 -1.81899,-3.63798 2.27374,-11.9521 2.85714,-14.28571 0.23099,-0.92395 0,-3.80953 0,-2.85715 0,1.90477 0,3.80953 0,5.71429 0,2.85714 0.90351,5.8609 0,8.57143 -1.08588,3.25764 -3.94758,5.62692 -5.71428,8.57143 -1.09567,1.8261 -1.3513,4.20844 -2.85715,5.71428 -0.67343,0.67344 0,-1.90476 0,-2.85714 0,-3.80952 0,-7.61905 0,-11.42857 0,-0.95238 0,-1.90476 0,-2.85714 0,-0.95239 -0.95238,-2.85715 0,-2.85715 0.95239,0 0,1.90476 0,2.85715 0,5.71428 0,11.42857 0,17.14285 0,2.85715 0,5.71429 0,8.57143 0,0.95238 0,3.80952 0,2.85714 0,-6.66666 0,-13.33333 0,-20 0,-3.80952 -1.70367,-8.02123 0,-11.42857 0.85184,-1.70367 4.01062,-0.85183 5.71429,0 0.46838,0.23419 -0.37471,8.57143 0,8.57143 1.34687,0 1.90476,-3.80952 2.85714,-2.85714 1.09399,1.09398 -12.08771,9.23057 0,-2.85714 0.67344,-0.67344 0.30117,1.95363 0,2.85714 -0.67343,2.0203 -1.35129,4.20844 -2.85714,5.71428 -0.67344,0.67344 -2.62616,0.92395 -2.85714,0 -0.92395,-3.69578 0.53875,-7.65733 0,-11.42857 -0.42592,-2.98142 -2.1267,-5.64965 -2.85715,-8.57143 -0.23098,-0.92394 0.67344,-2.1837 0,-2.85714 -2.94963,-2.94963 -4.59412,3.5998 -8.57142,8.57143 -3.3827,4.22837 -6.33869,6.8748 -11.42858,8.57143 -1.11178,0.37059 -8.12803,-0.44339 -8.57142,0 -0.67344,0.67343 0,1.90476 0,2.85714 0,1.90476 0,3.80952 0,5.71429 0,0.95238 0.85183,3.28306 0,2.85714 -4.81343,-2.40671 -6.41228,-7.11028 -8.57143,-11.42857 -0.95238,-1.90476 -1.3513,-4.20844 -2.85715,-5.71429 -0.67343,-0.67343 -2.1837,0.67344 -2.85714,0 -0.67343,-0.67343 0.30117,-1.95363 0,-2.85714 -3.80952,-11.42857 -2.7416,0.57772 -5.71428,-14.28571 -0.91131,-4.55654 1.00784,-9.75042 0,-14.28572 -1.50408,-6.76833 -3.80953,-13.33333 -5.71429,-20 -1.90476,-6.66667 1.21915,-20 -5.71429,-20 -6.73435,0 2.11346,13.30684 2.85715,20 0.21841,1.96576 -0.72241,9.26135 0,11.42857 0.67343,2.02031 4.7619,4.76191 2.85714,5.71429 -1.90476,0.95238 -4.36299,-7.22013 -2.85714,-5.71429 2.4281,2.42811 4.43898,5.38317 5.71428,8.57143 0.70741,1.76853 1.90476,5.71429 0,5.71429 -1.90476,0 0,-3.80953 0,-5.71429 0,-0.95238 0,-1.90476 0,-2.85714"
       id="path3564"
       inkscape:connector-curvature="0" />
    <path
       style="fill:none;stroke:#000000;stroke-width:1px;stroke-linecap:butt;stroke-linejoin:miter;stroke-opacity:1"
       d="m 337.14286,295.21933 c 19.5781,19.5781 2.54804,4.95739 22.85714,17.14285 1.15493,0.69296 3.80952,1.90476 2.85714,2.85715 -0.95238,0.95238 -1.73648,-2.11004 -2.85714,-2.85715 -2.68094,-1.78729 -8.74007,-2.6885 -5.71429,-5.71428 2.88822,-2.88822 8.54036,5.74535 11.42858,2.85714 0.67343,-0.67344 0,-1.90476 0,-2.85714 0,-20.26493 2.0203,-1.67368 -2.85715,-11.42857 -0.42591,-0.85184 0.67344,-2.18371 0,-2.85715 -0.67343,-0.67343 -2.85714,0.95238 -2.85714,0 0,-0.95238 1.90476,0 2.85714,0 11.44169,0 0.72756,-0.85183 17.14286,5.71429 0.88426,0.3537 2.18371,0.67343 2.85714,0 0.95243,-0.95243 -0.95242,-4.76186 0,-5.71429 0.67344,-0.67343 1.90476,0 2.85715,0 0.95238,0 2.1837,-0.67343 2.85714,0 0.67343,0.67344 0.67343,2.18371 0,2.85715 -0.67344,0.67343 -2.00531,0.42591 -2.85714,0 -1.20468,-0.60234 -2.85715,-4.20402 -2.85715,-2.85715 0,2.12959 1.76148,3.88818 2.85715,5.71429 0.23798,0.39664 6.0095,10.14761 8.57142,11.42857 0.85184,0.42592 2.18371,0.67343 2.85715,0 1.64732,-1.64732 -1.89603,-5.68807 -2.85715,-8.57143 -0.40859,-1.22579 1.30663,-9.87806 -2.85714,-5.71428 -1.34687,1.34687 -1.14286,4.19047 0,5.71428 2.85714,3.80952 9.29898,4.31225 11.42857,8.57143 0.42592,0.85184 -0.42591,2.00531 0,2.85714 0.60234,1.20468 3.80953,1.90476 2.85715,2.85715 -0.95239,0.95238 -1.60661,-2.35693 -2.85715,-2.85715 -3.64591,-1.45836 -7.75182,-1.47836 -11.42857,-2.85714 -16.35388,-6.1327 -5.81,-5.02393 -20,-8.57143 -0.92394,-0.23099 -1.90476,0 -2.85714,0 -1.90476,0 -5.71429,-1.90476 -5.71429,0 0,9.02251 8.93361,9.28773 14.28572,11.42857 1.97727,0.79091 3.69398,2.18371 5.71428,2.85715 0.90351,0.30116 2.00531,-0.42592 2.85715,0 1.20467,0.60233 3.80952,3.80952 2.85714,2.85714 -1.90476,-1.90476 -3.30493,-4.50961 -5.71429,-5.71429 -5.71428,-2.85714 -18.57143,-5.71428 -25.71428,-8.57143 -1.97728,-0.79091 -3.80953,-3.80952 -5.71429,-2.85714 -1.70367,0.85184 1.90476,5.71429 0,5.71429 -1.90476,0 1.48737,-4.52439 0,-5.71429 -4.00486,-3.20389 -9.23971,-6.63174 -14.28571,-5.71428 -6.75694,1.22853 -10.71242,9.01715 -17.14286,11.42857 -1.994,0.74775 -7.22013,-1.3513 -5.71429,-2.85715 2.02031,-2.0203 5.89621,1.00321 8.57143,0 28.0297,-10.51113 -0.64624,-13.09948 34.28572,0 9.06309,3.39867 -4.86784,-6.87852 -5.71429,-8.57142 -0.42592,-0.85184 0.95238,-2.85715 0,-2.85715 -4.85621,0 -14.28571,-1.99906 -14.28571,2.85715 0,4.8562 9.82215,0.94418 14.28571,2.85714 2.47594,1.06111 3.30493,4.50961 5.71429,5.71428 1.70367,0.85184 -1.34687,-4.36741 0,-5.71428 0.67343,-0.67344 1.93319,-0.23099 2.85714,0 3.71709,0.92927 10.7388,3.34967 14.28571,5.71428 2.17263,1.44842 5.71429,7.46138 5.71429,2.85715 0,-11.88005 -2.93065,-8.79197 -5.71429,-17.14286 -0.30117,-0.90351 0.67344,-2.18371 0,-2.85714 -0.67343,-0.67344 -2.1837,0.67343 -2.85714,0 -0.67343,-0.67344 -0.79243,-3.38543 0,-2.85715 18.9269,18.9269 0.29324,2.10026 14.28572,11.42858 2.8831,1.92206 4.92527,5.71428 2.85714,5.71428 -0.95238,0 0.52828,-2.06471 0,-2.85714 -1.90476,-1.90476 -3.80953,-3.80953 -5.71429,-5.71429 0,-0.95238 0.42592,-2.0053 0,-2.85714 -0.60234,-1.20468 -4.06182,-3.45948 -2.85714,-2.85714 0.24521,0.1226 10.14648,6.00724 11.42857,8.57143 0.42592,0.85183 -0.67343,2.1837 0,2.85714 0.67344,0.67343 2.85714,-0.95238 2.85714,0 0,1.26797 -12.38728,-1.91743 -14.28571,-5.71429 -4.72015,-9.4403 14.24059,5.71429 8.57143,5.71429 -1.34687,0 -1.65247,-2.25481 -2.85714,-2.85714 -0.85184,-0.42592 -1.95364,0.30116 -2.85715,0 -2.0203,-0.67344 -3.58469,-2.85715 -5.71428,-2.85715 -1.34687,0 1.90476,1.90476 2.85714,2.85715 2.85714,2.85714 5.50357,5.94183 8.57143,8.57142 3.61551,3.09901 8.06139,5.20426 11.42857,8.57143 1.50585,1.50585 1.3513,4.20844 2.85714,5.71429 1.50585,1.50584 5.71429,4.98673 5.71429,2.85714 0,-3.74577 -12.64753,-15.7777 -14.28572,-17.14286 -2.63796,-2.1983 -6.14332,-3.28618 -8.57142,-5.71428 -0.67344,-0.67344 -0.67344,-3.53058 0,-2.85714 14.43373,14.43373 4.39156,6.58735 11.42857,17.14285 0.74711,1.12067 2.85714,1.51028 2.85714,2.85715 0,0.95238 -2.85714,0.95238 -2.85714,0 0,-0.95239 3.80952,0 2.85714,0 -29.00417,0 -7.05765,1.80701 -25.71429,-2.85715 -0.92394,-0.23098 -2.1837,0.67344 -2.85714,0 -0.67343,-0.67343 -0.95238,-2.85714 0,-2.85714 0.95238,0 -0.67343,2.18371 0,2.85714 13.81746,13.81746 6.92398,4.89056 20,11.42857 4.35004,2.17503 1.67294,5.71429 8.57143,5.71429 1.34687,0 1.65247,-2.2548 2.85714,-2.85714 0.85184,-0.42592 2.18371,0.67343 2.85715,0 0.67343,-0.67344 0,-1.90477 0,-2.85715 0,-1.12946 0.61012,-13.06547 0,-14.28571 -0.60234,-1.20468 -2.25481,-1.65247 -2.85715,-2.85714 -0.42591,-0.85184 -0.95238,-2.85715 0,-2.85715 0.95238,0 0,1.90477 0,2.85715"
       id="path3566"
       inkscape:connector-curvature="0" />
    <flowRoot
       xml:space="preserve"
       id="flowRoot3590"
       style="font-size:40px;font-style:normal;font-weight:normal;line-height:125%;letter-spacing:0px;word-spacing:0px;fill:#000000;fill-opacity:1;stroke:none;font-family:Sans"
       transform="matrix(1.1807782,0,0,2.503812,-92.626227,-371.06562)"><flowRegion
         id="flowRegion3592"><rect
           id="rect3594"
           width="365.71429"
           height="237.14285"
           x="511.42856"
           y="232.36218" /></flowRegion><flowPara
         id="flowPara3598"
         style="font-style:normal;font-variant:normal;font-weight:normal;font-stretch:normal;font-family:MS Mincho;-inkscape-font-specification:MS Mincho">oh god, need to use bathroom</flowPara><flowPara
         id="flowPara3600"
         style="font-style:normal;font-variant:normal;font-weight:normal;font-stretch:normal;font-family:MS Mincho;-inkscape-font-specification:MS Mincho">please hold this</flowPara><flowPara
         id="flowPara3602"
         style="font-style:normal;font-variant:normal;font-weight:normal;font-stretch:normal;font-family:MS Mincho;-inkscape-font-specification:MS Mincho">for me</flowPara></flowRoot>    <flowRoot
       xml:space="preserve"
       id="flowRoot3606"
       style="fill:black;stroke:none;stroke-opacity:1;stroke-width:1px;stroke-linejoin:miter;stroke-linecap:butt;fill-opacity:1;font-family:Sans;font-style:normal;font-weight:normal;font-size:40px;line-height:125%;letter-spacing:0px;word-spacing:0px"><flowRegion
         id="flowRegion3608"><rect
           id="rect3610"
           width="220"
           height="225.71428"
           x="517.14288"
           y="263.79074" /></flowRegion><flowPara
         id="flowPara3612"></flowPara></flowRoot>  </g>
</svg>
